# xmcd CD database file
#
# Track frame offsets:
#	150
#	20730
#	40222
#	62705
#	81197
#	93912
#	110575
#	126872
#	146932
#	166782
#	187417
#	207760
#	226480
#	248057
#	264875
#	285180
#	306297
#
# Disc length: 4331 seconds
#
# Revision: 4
# Processed by: cddbd v1.5.1PL0 Copyright (c) Steve Scherf et al.
# Submitted via: CDex 1.60beta1
#
DISCID=f010e911
DTITLE=中森明菜 - AKINA [CD3 Purple Moon)
DYEAR=1993
DGENRE=JPop
TTITLE0=不思議
TTITLE1=燠火
TTITLE2=MIND GAME
TTITLE3=約束
TTITLE4=ミック・ジャガーに微笑みを (オリジナルバージョン)
TTITLE5=CROSS MY PALM
TTITLE6=THE LOOK THAT KILLS
TTITLE7=FAREWELL
TTITLE8=NIGHTMARE 悪夢
TTITLE9=FOGGY RELATION
TTITLE10=Femme Fatale
TTITLE11=Heartbreak
TTITLE12=URAGIRI
TTITLE13=さよならじゃ終わらない
TTITLE14=乱火
TTITLE15=Dear Friend
TTITLE16=二人静 -「天河伝説殺人事件」より
EXTD=YEAR: 1993
EXTT0=
EXTT1=
EXTT2=
EXTT3=
EXTT4=
EXTT5=
EXTT6=
EXTT7=
EXTT8=
EXTT9=
EXTT10=
EXTT11=
EXTT12=
EXTT13=
EXTT14=
EXTT15=
EXTT16=
PLAYORDER=
